<svg xmlns="http://www.w3.org/2000/svg" width="180" height="180" preserveAspectRatio="xMidYMid"><g transform="translate(-.383 -51.74)"><title>background</title><path fill="none" d="M-1-1h582v402h-582z"/></g><g transform="matrix(.629 0 0 .746 8.315 6.223)"><title>Layer 1</title><g><path d="M152.94 231.717c-12.345 0-24.347-.023-36.35.023-1.973.006-2.095-.781-1.64-2.43 2.424-8.786 1.952-17.792 1.89-26.762-.013-1.908-.275-3.712-1.536-5.196-8.145-9.558-10.925-21.108-12.7-33.147-2.187-14.83-6.324-29.109-13.278-42.48-.423-.815-.774-1.675-1.105-2.536-.749-1.942-1.275-4.1.857-5.315 2.185-1.243 4.53-.608 5.992 1.428 1.841 2.565 3.356 5.364 4.985 8.079 2.65 4.413 5.142 8.932 8.401 12.94.944 1.163 2.159 2.944 3.799 2.053 1.404-.765.492-2.626.278-4.022-1.834-12.002-3.167-24.063-4.087-36.167-.213-2.79.458-5.485 3.786-6.001 3.263-.507 3.79 2.138 4.4 4.476 2.824 10.846 5.618 21.696 8.498 32.526.318 1.193.365 3.203 1.825 3.175 1.754-.034 1.644-2.097 1.904-3.438 1.387-7.146 1.398-14.433 2.145-21.648.695-6.69 1.205-13.402 1.64-20.115.226-3.464 1.885-5.507 5.277-5.765 2.877-.218 4.424 2.133 4.417 6.249-.02 13.207-.085 26.413-.053 39.619.005 2.023-.484 5.097 1.726 5.511 1.914.36 2.395-2.717 3.1-4.485 4.115-10.308 9.565-19.991 14.04-30.131 1.164-2.64 3.428-3.351 5.907-2.459 3.239 1.167 2.643 3.964 1.891 6.381a3638.687 3638.687 0 0 1-11.96 37.704c-1.344 4.153-1.508 8.27-.432 12.465.165.639.295 1.294.548 1.898.8 1.91 1.143 4.468 3.585 4.797 2.205.297 3.288-1.906 4.557-3.362 3.615-4.14 6.556-9.09 12.75-9.95 2.641-.368 5.25-.572 7.841.247 3.377 1.072 3.822 2.514 1.365 4.96-1.3 1.297-2.732 2.543-4.304 3.47-7.032 4.13-11.567 10.214-14.588 17.671-1.583 3.908-3.549 7.661-5.45 11.43-1.616 3.2-3.434 6.61-6.304 8.537-5.403 3.631-5.886 8.787-6.139 14.389-.384 8.463-.127 16.85 2.522 25.38z" fill="#9a9188"/><path d="M60.515 97.767c3.855 4.489 7.709 8.977 11.585 13.493-8.38 3.266-19.314.183-25.187-7.24-6.411-8.108-8.67-17.623-8.928-27.746-.033-1.214-.015-2.38 1.687-2.578 13.598-1.585 36.417 10.243 36.63 28.265.006.661.07 1.33-.023 1.979-.232 1.649.08 3.993-1.4 4.613-1.48.623-2.391-1.638-3.534-2.635-3.375-2.947-6.673-5.983-10-8.987-1.012-.45-1.062.051-.83.836m106.164-27.45c-5.523 3.53-9.303 8.8-13.771 13.432-4.47-6.512-2.424-18.582 4.383-25.278 6.029-5.93 13.509-9.098 21.692-10.692 6.814-1.327 6.959-1.17 6.963 5.944.007 9.506-3.243 17.871-9.36 25.032-5.526 6.468-12.582 9.213-21.702 7.737l11.795-16.175m48.795 85.598c-4.755-3.895-10.556-5.729-15.99-8.363 4.503-5.882 15.86-7.577 23.816-3.46 7.044 3.647 12.05 9.391 15.856 16.223 3.17 5.689 3.07 5.863-3.27 7.94-8.473 2.778-16.878 2.319-25.048-1.048-7.377-3.041-11.88-8.532-13.223-17.093l17.86 5.801m124.956 51.631c-1.922 5.973-2.69 12.09-3.38 18.222-.112.998.402 2.39-.711 2.89-1.293.582-2.14-.746-2.945-1.488-6.747-6.226-8.959-13.754-6.193-22.59 2.585-8.267 7.563-14.982 13.718-20.93 1.281-1.237 2.236-1.531 3.478.107 7.606 10.036 11.358 21.07 8.55 33.682-1.22 5.468-4.704 9.302-9.85 11.618-2.162.975-3.207 1.172-3.022-1.977.384-6.494 1.48-12.988.355-19.534m99.64 95.543c-1.977-5.902-3.881-11.578-5.784-17.252-.627 5.172 1.033 9.863 2.01 14.669.203 1.002.966 2.223.02 2.953-.903.7-2.02-.217-2.937-.628-8.25-3.702-13.235-9.9-14.02-19.05-.731-8.551 1.606-16.46 5.511-23.975.636-1.223 1.178-2.25 2.975-1.408 12.395 5.806 22.432 23.665 18.052 36.175-1.133 3.241-2.588 6.302-5.826 8.516m66.912 139.74c4.88 4.613 9.76 9.224 14.792 13.984-4.827 2.985-11.136 3.146-16.383-.01-11.585-6.963-17.426-17.59-18.549-30.94-.161-1.92.599-2.516 2.552-2.313 10.024 1.044 19.427 3.833 27.507 10.043 6.282 4.827 8.8 11.326 7.552 19.212-.121.765.024 1.752-.858 2.055-.897.31-1.333-.635-1.875-1.141-4.434-4.153-9.027-8.113-13.942-11.685-.204-.245-.432-.307-.649-.141-.34.258-.442.57-.147.935m5.511-82.243c-6.53-2.78-11.828-7.349-18.56-8.818 5.073 4.472 10.768 7.989 16.463 11.51-3.366 4.69-13.837 5.75-19.294 2.497-158.206-21.922-163.033-31.192-166.582-41.338-.526-1.506.308-2.143 1.664-2.502 11.802-3.127 22.854-1.75 32.395 6.214 4.853 4.051 6.49 9.663 5.35 16.262m99.817 71.376c6.559-2.276 13-3.728 18.9-6.714-6.57.407-12.777 2.634-19.611 3.897 1.305-6.265 4.741-10.397 10.151-12.578 9.835-3.963 19.603-3.351 29.119 1.33 1.439.709 2.576 1.382 1.093 3.18-6.321 7.664-13.384 14.34-23.455 16.6-6.322 1.42-11.625-.674-16.197-5.715m157.818 24.616c-2.554 5.098-3.535 10.656-5.027 16.066-5.041-2.196-8.391-8.92-7.134-14.76 1.98-9.18 8.024-15.52 15.169-21.04 1.442-1.114 2.087-.277 2.78.808 5.096 7.949 6.959 16.457 4.241 25.669-1.395 4.726-4.585 7.93-9.133 9.77-2.45.991-3.427.305-2.843-2.443.981-4.625 2.043-9.249 1.947-14.07m-62.465 7.379c1.882 4.034 3.767 8.068 5.664 12.132-6.197 1.21-12.53-2.275-15.29-8.517-3.125-7.06-2.747-14.39-1.38-21.768.296-1.588 1.04-1.928 2.497-1.432 9.036 3.067 16.215 8.311 19.762 17.475 1.84 4.753 1.048 9.3-2.679 13.68l-22.184-116.655c-.979-.418-1.024.08-.812.829m127.151 62.189c5.418-2.23 10.795-3.564 16.327-7.178-6.725.214-11.903 2.601-17.373 3.674-.008-5.785 2.565-9.902 8.03-11.909 8.398-3.086 16.59-2.106 24.487 1.992 1.517.785 1.786 1.664.93 3.101-3.501 5.875-7.704 11.081-13.938 14.237-6.613 3.347-13.076 1.994-18.463-3.917m-138.1 87.642c2.972-1.05 5.928-2.153 8.928-3.118 1.04-.336 2.174-1.62 3.22-.535.936.971.007 2.268-.267 3.365-1.268 5.085-4.653 8.203-9.589 9.5-6.296 1.658-12.518.78-18.679-1.023-1.828-.536-2.346-1.39-1.578-3.133 3.537-8.026 9.004-13.853 17.912-15.738 4.509-.954 8.137.76 11.683 3.882l-12.398 6.009c-.227.2-.304.432-.156.658.247.378.579.345.924.133m25.321 134.295c4.874 1.71 9.62.41 14.328.823-.867 5.07-5.246 8.996-10.646 9.358-7.827.526-14.323-2.855-20.45-7.226-1.226-.877-1.205-1.65-.348-2.932 4.317-6.453 16.207-11.061 23.56-8.993 3.748 1.054 6.44 3.305 8.269 7.222l-14.713 1.748m193.72 90.51l-8.166 6.2c-1.957-5.31.25-11.758 5.444-15.461 5.533-3.95 11.885-5.408 18.58-5.777 2.226-.122 2.778.786 2.387 2.777-1.612 8.183-5.26 15.182-12.208 20.04-4.01 2.802-8.398 3.55-13.275.753 2.82-2.676 5.46-5.184 8.097-7.689.171-.34.512-.921.426-1.009-.424-.438-.845.096-1.286.166m30.226 95.702c-4.726 1.522-9.355 2.437-14.353 4.958 4.79.712 8.458-.806 12.233-1.297.95-.123 2.149-1.149 2.886-.045.61.914-.164 2.031-.548 3.001-1.606 4.05-4.806 6.33-8.874 7.13-6.695 1.317-13.108.305-19.119-3.1-2.151-1.22-2.796-2.397-1.111-4.596 3.172-4.143 6.71-7.85 11.4-10.23 6.585-3.338 12.412-1.977 17.486 4.18m209.544 52.412c-3.242 1.705-6.485 3.408-9.73 5.11-1.655-4.86.38-10.208 5.152-12.916 5.999-3.405 12.526-3.676 19.191-2.856 1.807.222 2.552 1.07 2.065 2.914-1.9 7.204-5.67 13.047-12.431 16.529-4.46 2.295-8.865 1.976-13.27-1.173l10.294-7.444c-.3-1.011-.841-.15-1.27-.164m-20.874 126.547c-3.879-1.785-7.757-3.57-11.635-5.357 3.314-4.984 9.699-6.904 15.592-4.42 7.408 3.12 12.297 8.958 16.276 15.696 1.078 1.828.826 3.118-1.224 3.978-8.006 3.365-16.08 4.036-24.101.264-5.29-2.487-8.126-6.784-8.347-13.09l14.19 4.217c.721-.996-.458-.883-.751-1.288m27.922 75.034c-3.677-.997-6.543-3.5-11.161-3.483l10.637 5.65c-39.33-229.998-43.226-229.467-47.321-230.904-6.757-2.374-11.133-7.267-13.919-13.76-.797-1.86-.253-2.637 1.6-3.01 5.372-1.08 10.742-1.444 16.063.142 5.64 1.681 8.686 5.975 8.493 12.025m31.306 88.521c-2.69.297-4.863.51-7.03.788-2.028.258-4.046.584-5.979 1.448 3.542 0 7.083.055 10.624-.019 2.26-.044 2.522.797 1.407 2.552-2.054 3.23-5.073 5.028-8.777 5.402-6.583.668-12.473-1.216-17.729-5.253-1.838-1.41-1.896-2.458-.07-3.937 4.778-3.859 9.761-7.23 16.165-7.54 4.905-.236 8.528 1.852 11.389 6.56m195.016 23.71c-4.783 1.772-8.1 4.358-11.95 6.474-1.242-5.068.487-8.632 4.243-11.218 5.015-3.458 10.628-4.374 16.611-3.366 2.085.353 2.994 1.077 2.237 3.408-1.482 4.572-3.372 8.85-6.862 12.284-3.365 3.314-7.334 3.89-11.687 2.64-.84-.243-1.98-.71-2.248-1.372-.42-1.04.936-1.352 1.596-1.884 2.509-2.025 5.357-3.658 8.06-6.966m29.539 96.68c4.127-.623 7.932 1.442 12.394.44-3.982-1.85-7.936-1.886-11.633-2.877 2.297-5.484 8.257-7.82 14.721-5.603 5.282 1.812 9.464 5.25 13.164 9.363 1.28 1.422 1.461 2.36-.3 3.56-6.193 4.217-12.873 6.021-20.21 3.967-4.348-1.22-7.27-4.045-8.136-8.85m117.574 14.582c.5 1.913 2.562 2.961 2.874 5.01-5.792 1.15-9.258-.9-11.74-7.018-1.509-3.718-3.204-8.756-.486-11.143 2.724-2.388 7.136.804 10.355 2.729 5.377 3.22 6.615 7.427 4.316 13.658-2.159-.696-2.65-3.147-4.405-4.187-1.12-.465-1.237.032-.914.951m70.94 30.203c-5.347.005-8.206-1.914-9.627-6.318-1.335-4.148-.893-8.31.133-12.454.33-1.325.93-1.995 2.494-1.726 5.085.877 11.833 8.113 12.13 13.297.136 2.406-.358 4.213-2.503 6.03-1.672-2.906-3.388-5.29-5.003-8.1-.304 3.355 1.695 5.985 2.377 9.271" fill="#9eb63a"/></g></g></svg>