<?xml version="1.0" encoding="UTF-8" standalone="no"?>
<svg
   xmlns:dc="http://purl.org/dc/elements/1.1/"
   xmlns:cc="http://creativecommons.org/ns#"
   xmlns:rdf="http://www.w3.org/1999/02/22-rdf-syntax-ns#"
   xmlns:svg="http://www.w3.org/2000/svg"
   xmlns="http://www.w3.org/2000/svg"
   xmlns:sodipodi="http://sodipodi.sourceforge.net/DTD/sodipodi-0.dtd"
   xmlns:inkscape="http://www.inkscape.org/namespaces/inkscape"
   width="47.625mm"
   height="47.625mm"
   viewBox="0 0 47.625 47.624996"
   version="1.1"
   id="svg4"
   sodipodi:docname="udemy.svg"
   inkscape:version="0.92.3 (2405546, 2018-03-11)">
  <metadata
     id="metadata10">
    <rdf:RDF>
      <cc:Work
         rdf:about="">
        <dc:format>image/svg+xml</dc:format>
        <dc:type
           rdf:resource="http://purl.org/dc/dcmitype/StillImage" />
      </cc:Work>
    </rdf:RDF>
  </metadata>
  <defs
     id="defs8" />
  <sodipodi:namedview
     pagecolor="#ffffff"
     bordercolor="#666666"
     borderopacity="1"
     objecttolerance="10"
     gridtolerance="10"
     guidetolerance="10"
     inkscape:pageopacity="0"
     inkscape:pageshadow="2"
     inkscape:window-width="1366"
     inkscape:window-height="706"
     id="namedview6"
     showgrid="false"
     inkscape:zoom="1.3111111"
     inkscape:cx="89.999999"
     inkscape:cy="89.999999"
     inkscape:window-x="142"
     inkscape:window-y="1072"
     inkscape:window-maximized="1"
     inkscape:current-layer="svg4" />
  <path
     id="path14"
     d="m 18.075841,4.7956514 c 1.728125,0.662567 2.265016,2.3753635 2.265016,4.3276533 -0.0149,1.5469223 -0.16405,3.0938433 -0.462324,4.6044223 -0.640356,3.44423 -1.429849,6.851186 -2.086051,10.276779 -0.535961,2.818006 -1.028114,5.672357 -1.043027,8.58262 0.0149,0.792098 0.11931,1.584197 0.298274,2.33902 0.343014,1.510578 1.371128,1.62054 2.145708,0.699843 0.491218,-0.58895 0.93863,-1.215173 1.341299,-1.89731 1.936916,-3.186099 3.650126,-6.575349 5.110734,-10.129541 1.414937,-3.406956 4.64841,-11.105221 4.842289,-11.56557 1.013199,-2.3017453 3.814176,-1.915015 4.663324,0.331749 0.476306,1.215173 0.744753,2.559876 0.789493,3.90458 0.07458,2.910263 0.298275,11.031602 0.40267,12.191793 0.193879,2.246765 1.356215,2.965244 2.905374,1.712796 0.93863,-0.754822 1.787778,-1.712796 2.636927,-2.614856 0.789493,-0.865718 1.207076,-0.773461 1.593899,0.441711 0.343016,1.067936 0.193879,2.136802 -0.08948,3.149757 -0.953544,3.425593 -3.024683,5.249283 -5.780918,5.985468 -0.878977,0.239494 -1.787778,0.258132 -2.681668,0.07362 -1.981656,-0.405368 -3.248389,-1.82369 -4.008053,-4.014541 -0.72984,-2.118165 -0.953546,-8.139977 -1.117596,-8.913438 -0.268446,0.699843 -3.441333,8.784838 -5.110735,11.860976 -1.043026,1.970927 -2.309757,3.757342 -3.769434,5.285627 -1.444764,1.49194 -3.084338,2.412638 -5.00634,2.467619 -2.324672,0.07361 -4.008055,-1.233813 -5.169459,-3.66509 C 10.00101,38.665782 9.6878229,36.916642 9.5834271,35.11159 9.4342901,32.588058 9.7623913,30.120438 10.20887,27.652818 10.358007,26.86072 10.462402,26.050915 10.626453,25.037961 9.9860966,25.443329 9.5685134,25.811422 9.0922074,26.01364 8.5264193,26.253133 7.914958,26.492627 7.3193426,26.47399 5.2034629,26.40037 4.8912076,23.508745 4.8912076,23.029758 5.6061326,22.348554 6.3657985,21.72233 7.022001,20.985212 c 3.129078,-3.499211 5.482645,-7.698265 7.180942,-12.4499239 0.565787,-1.5655594 1.266731,-2.910263 2.517618,-3.7387048 0.417582,-0.2208557 0.789493,-0.2394934 1.356213,0 z"
     class="st0"
     inkscape:connector-curvature="0"
     style="fill:#eb524f;stroke-width:0.93199313" />
  <style
     id="style10">.st0{fill:#eb524f}</style>
</svg>
