<?xml version="1.0" encoding="UTF-8" standalone="no"?>
<svg
   xmlns:dc="http://purl.org/dc/elements/1.1/"
   xmlns:cc="http://creativecommons.org/ns#"
   xmlns:rdf="http://www.w3.org/1999/02/22-rdf-syntax-ns#"
   xmlns:svg="http://www.w3.org/2000/svg"
   xmlns="http://www.w3.org/2000/svg"
   xmlns:sodipodi="http://sodipodi.sourceforge.net/DTD/sodipodi-0.dtd"
   xmlns:inkscape="http://www.inkscape.org/namespaces/inkscape"
   width="47.625mm"
   height="47.625mm"
   viewBox="0 0 47.625 47.624996"
   version="1.1"
   id="svg4"
   sodipodi:docname="udemy.svg"
   inkscape:version="0.92.3 (2405546, 2018-03-11)">
  <metadata
     id="metadata10">
    <rdf:RDF>
      <cc:Work
         rdf:about="">
        <dc:format>image/svg+xml</dc:format>
        <dc:type
           rdf:resource="http://purl.org/dc/dcmitype/StillImage" />
      </cc:Work>
    </rdf:RDF>
  </metadata>
  <defs
     id="defs8" />
  <sodipodi:namedview
     pagecolor="#ffffff"
     bordercolor="#666666"
     borderopacity="1"
     objecttolerance="10"
     gridtolerance="10"
     guidetolerance="10"
     inkscape:pageopacity="0"
     inkscape:pageshadow="2"
     inkscape:window-width="640"
     inkscape:window-height="480"
     id="namedview6"
     showgrid="false"
     inkscape:zoom="1.3111111"
     inkscape:cx="90"
     inkscape:cy="90"
     inkscape:window-x="463"
     inkscape:window-y="1129"
     inkscape:window-maximized="0"
     inkscape:current-layer="svg4" />
  <path
     id="path14"
     d="m 17.49439,2.1883269 c 1.889966,0.7246173 2.477138,2.5978193 2.477138,4.7329434 -0.0163,1.6917929 -0.179414,3.3835857 -0.505622,5.0356317 -0.700326,3.766787 -1.563756,7.492808 -2.281412,11.239212 -0.586154,3.081916 -1.124398,6.20358 -1.140708,9.386393 0.0163,0.866279 0.130484,1.732559 0.326208,2.558072 0.375138,1.652046 1.499536,1.772306 2.346656,0.765384 0.537222,-0.644105 1.026534,-1.328975 1.466914,-2.074995 2.11831,-3.484481 3.991964,-7.191138 5.58936,-11.078185 1.547448,-3.726021 5.08374,-12.145239 5.295776,-12.6487 1.108086,-2.5173062 4.171378,-2.094358 5.10005,0.362818 0.520912,1.328975 0.8145,2.799612 0.86343,4.270249 0.08156,3.182812 0.326208,12.064725 0.44038,13.333569 0.212036,2.457177 1.483226,3.242943 3.177466,1.873202 1.026534,-0.825513 1.955206,-1.873202 2.883878,-2.859741 0.86343,-0.946793 1.32012,-0.845896 1.74317,0.483078 0.37514,1.167949 0.212036,2.336916 -0.09786,3.444735 -1.042844,3.746404 -3.307948,5.740885 -6.322308,6.546015 -0.961294,0.261923 -1.955206,0.282306 -2.93281,0.08051 -2.16724,-0.443331 -3.552604,-1.994481 -4.383412,-4.390508 -0.79819,-2.316533 -1.042846,-8.902295 -1.22226,-9.748192 -0.293586,0.765384 -3.763618,9.607549 -5.589362,12.971771 -1.140706,2.155507 -2.526068,4.109222 -4.122446,5.780632 -1.580068,1.631663 -3.37319,2.638585 -5.47519,2.698715 -2.54238,0.08051 -4.383414,-1.349357 -5.6535846,-4.008326 C 8.663342,39.230437 8.3208242,37.317488 8.2066516,35.34339 8.0435478,32.583526 8.402376,29.884811 8.890668,27.186095 9.0537716,26.319816 9.1679442,25.434172 9.3473584,24.326354 8.6470316,24.769685 8.1903412,25.17225 7.6694286,25.393406 7.0506538,25.655328 6.3819284,25.917251 5.7305328,25.896868 3.4164984,25.816354 3.075,22.653925 3.075,22.13008 3.8568786,21.38508 4.6876882,20.70021 5.4053448,19.89406 8.8274652,16.067143 11.401446,11.474843 13.25879,6.2781852 c 0.618774,-1.7121759 1.385362,-3.1828127 2.753396,-4.0888391 0.45669,-0.2415391 0.86343,-0.2619222 1.483224,0 z"
     class="st0"
     inkscape:connector-curvature="0"
     style="fill:#eb524f;stroke-width:1.01927543" />
  <style
     id="style10">.st0{fill:#eb524f}</style>
</svg>
