<?xml version="1.0" encoding="UTF-8" standalone="no"?>
<!-- Created with Inkscape (http://www.inkscape.org/) -->

<svg
   xmlns:dc="http://purl.org/dc/elements/1.1/"
   xmlns:cc="http://creativecommons.org/ns#"
   xmlns:rdf="http://www.w3.org/1999/02/22-rdf-syntax-ns#"
   xmlns:svg="http://www.w3.org/2000/svg"
   xmlns="http://www.w3.org/2000/svg"
   xmlns:sodipodi="http://sodipodi.sourceforge.net/DTD/sodipodi-0.dtd"
   xmlns:inkscape="http://www.inkscape.org/namespaces/inkscape"
   width="47.625mm"
   height="47.624996mm"
   viewBox="0 0 47.625 47.624996"
   version="1.1"
   id="svg8"
   inkscape:version="0.92.3 (2405546, 2018-03-11)"
   sodipodi:docname="udemy.svg">
  <defs
     id="defs2" />
  <sodipodi:namedview
     id="base"
     pagecolor="#ffffff"
     bordercolor="#666666"
     borderopacity="1.0"
     inkscape:pageopacity="0.0"
     inkscape:pageshadow="2"
     inkscape:zoom="1.979899"
     inkscape:cx="159.62492"
     inkscape:cy="123.60931"
     inkscape:document-units="mm"
     inkscape:current-layer="layer1"
     showgrid="false"
     fit-margin-top="0"
     fit-margin-left="0"
     fit-margin-right="0"
     fit-margin-bottom="0"
     inkscape:window-width="1366"
     inkscape:window-height="706"
     inkscape:window-x="-8"
     inkscape:window-y="-8"
     inkscape:window-maximized="1" />
  <metadata
     id="metadata5">
    <rdf:RDF>
      <cc:Work
         rdf:about="">
        <dc:format>image/svg+xml</dc:format>
        <dc:type
           rdf:resource="http://purl.org/dc/dcmitype/StillImage" />
        <dc:title />
      </cc:Work>
    </rdf:RDF>
  </metadata>
  <g
     inkscape:label="Layer 1"
     inkscape:groupmode="layer"
     id="layer1"
     transform="translate(-7.8278024,-166.60151)">
    <path
       id="path14"
       d="m 25.047328,169.59322 c 1.854154,0.71148 2.429582,2.54947 2.429582,4.64438 -0.01597,1.66011 -0.175825,3.32023 -0.495506,4.94082 -0.687316,3.69573 -1.534473,7.35194 -2.237773,11.02791 -0.575428,3.02378 -1.102904,6.08709 -1.118888,9.20969 0.01597,0.84982 0.127873,1.69964 0.319683,2.50994 0.367634,1.62059 1.470536,1.73917 2.301709,0.751 0.527475,-0.63243 1.006998,-1.30437 1.43857,-2.03561 2.077931,-3.41905 3.916102,-7.05551 5.482543,-10.86982 1.518489,-3.6562 4.987038,-11.91725 5.194832,-12.41134 1.086918,-2.47041 4.09193,-2.05538 5.003024,0.35575 0.51149,1.30436 0.799205,2.74709 0.847155,4.1898 0.07992,3.1226 0.319683,11.83822 0.431572,13.0833 0.207792,2.41112 1.454552,3.18189 3.116899,1.83799 1.006997,-0.8103 1.918091,-1.83799 2.829184,-2.80639 0.847159,-0.92887 1.294713,-0.83006 1.7103,0.47432 0.367632,1.14626 0.207794,2.29254 -0.0959,3.37952 -1.022983,3.67597 -3.244772,5.63253 -6.201831,6.42307 -0.94306,0.25693 -1.91809,0.27668 -2.877137,0.079 -2.125884,-0.43479 -3.484533,-1.95656 -4.29972,-4.30839 -0.783223,-2.27277 -1.022983,-8.73538 -1.19881,-9.56543 -0.287713,0.75101 -3.692326,9.42708 -5.482545,12.72756 -1.118887,2.11467 -2.477535,4.0317 -4.043974,5.67206 -1.550459,1.60083 -3.308711,2.58899 -5.370659,2.64828 -2.493519,0.079 -4.299721,-1.32414 -5.546481,-3.93289 -0.799205,-1.67989 -1.13487,-3.5574 -1.246759,-5.4942 -0.159842,-2.70756 0.19181,-5.35584 0.67133,-8.00413 0.159842,-0.84982 0.27173,-1.7194 0.447557,-2.80638 -0.687317,0.43479 -1.134871,0.83005 -1.646364,1.04745 -0.607394,0.25693 -1.262742,0.51385 -1.902106,0.49409 -2.269743,-0.079 -2.605408,-3.18189 -2.605408,-3.69574 0.767237,-0.73124 1.582425,-1.4032 2.285725,-2.19373 3.356661,-3.75502 5.882149,-8.26105 7.704334,-13.35997 0.607398,-1.67988 1.358648,-3.1226 2.701313,-4.01195 0.447557,-0.23716 0.847159,-0.25692 1.454554,0 z"
       class="st0"
       inkscape:connector-curvature="0"
       style="fill:#eb524f;stroke-width:0.17773527" />
  </g>
  <style
     id="style10">.st0{fill:#eb524f}</style>
</svg>
