<?xml version="1.0" encoding="UTF-8" standalone="no"?>
<!-- Created with Inkscape (http://www.inkscape.org/) -->

<svg
   xmlns:dc="http://purl.org/dc/elements/1.1/"
   xmlns:cc="http://creativecommons.org/ns#"
   xmlns:rdf="http://www.w3.org/1999/02/22-rdf-syntax-ns#"
   xmlns:svg="http://www.w3.org/2000/svg"
   xmlns="http://www.w3.org/2000/svg"
   xmlns:sodipodi="http://sodipodi.sourceforge.net/DTD/sodipodi-0.dtd"
   xmlns:inkscape="http://www.inkscape.org/namespaces/inkscape"
   width="47.625mm"
   height="47.624996mm"
   viewBox="0 0 47.625 47.624996"
   version="1.1"
   id="svg8"
   inkscape:version="0.92.3 (2405546, 2018-03-11)"
   sodipodi:docname="udemy.svg">
  <defs
     id="defs2" />
  <sodipodi:namedview
     id="base"
     pagecolor="#ffffff"
     bordercolor="#666666"
     borderopacity="1.0"
     inkscape:pageopacity="0.0"
     inkscape:pageshadow="2"
     inkscape:zoom="0.35"
     inkscape:cx="370.41461"
     inkscape:cy="247.15533"
     inkscape:document-units="mm"
     inkscape:current-layer="layer1"
     showgrid="false"
     fit-margin-top="0"
     fit-margin-left="0"
     fit-margin-right="0"
     fit-margin-bottom="0"
     inkscape:window-width="1366"
     inkscape:window-height="706"
     inkscape:window-x="-8"
     inkscape:window-y="-8"
     inkscape:window-maximized="1" />
  <metadata
     id="metadata5">
    <rdf:RDF>
      <cc:Work
         rdf:about="">
        <dc:format>image/svg+xml</dc:format>
        <dc:type
           rdf:resource="http://purl.org/dc/dcmitype/StillImage" />
        <dc:title></dc:title>
      </cc:Work>
    </rdf:RDF>
  </metadata>
  <g
     inkscape:label="Layer 1"
     inkscape:groupmode="layer"
     id="layer1"
     transform="translate(-7.8278024,-166.60151)">
    <path
       id="path14"
       d="m 24.018056,166.81099 c 2.122112,0.80398 2.780699,2.8809 2.780699,5.24815 -0.01828,1.87593 -0.201234,3.75187 -0.567115,5.58313 -0.786646,4.17619 -1.756231,8.30771 -2.56117,12.46156 -0.658587,3.41688 -1.262292,6.87842 -1.280586,10.40696 0.01828,0.9603 0.146352,1.9206 0.365882,2.83623 0.420764,1.83127 1.683054,1.96526 2.634345,0.84864 0.603705,-0.71465 1.152528,-1.47395 1.646468,-2.30025 2.378228,-3.86353 4.482047,-7.97272 6.274866,-12.2829 1.737936,-4.13152 5.70775,-13.46652 5.945573,-14.02483 1.243997,-2.79157 4.683284,-2.32258 5.726047,0.40199 0.585409,1.47394 0.914704,3.10422 0.969584,4.73449 0.09147,3.52854 0.365882,13.37719 0.49394,14.78414 0.237823,2.72457 1.664761,3.59554 3.567345,2.07693 1.152525,-0.91564 2.195288,-2.07693 3.23805,-3.17122 0.969587,-1.04963 1.481821,-0.93797 1.957467,0.53598 0.420762,1.29528 0.237824,2.59057 -0.109765,3.81886 -1.170821,4.15385 -3.713697,6.36477 -7.098101,7.25807 -1.079349,0.29033 -2.195288,0.31266 -3.292933,0.0893 -2.433111,-0.49131 -3.988107,-2.21092 -4.921104,-4.86849 -0.896411,-2.56824 -1.170821,-9.87098 -1.372058,-10.80894 -0.329293,0.84863 -4.22593,10.65261 -6.274866,14.38215 -1.280586,2.38958 -2.835582,4.55583 -4.628398,6.40943 -1.774526,1.80894 -3.786876,2.92557 -6.146811,2.99256 -2.853875,0.0893 -4.921105,-1.49628 -6.348042,-4.44417 -0.914704,-1.89827 -1.298879,-4.01986 -1.426938,-6.20845 -0.182941,-3.05955 0.21953,-6.05211 0.76835,-9.04467 0.182941,-0.9603 0.310999,-1.94293 0.512236,-3.17122 -0.786646,0.49132 -1.298879,0.93796 -1.884291,1.18363 -0.695174,0.29032 -1.445231,0.58064 -2.176994,0.55831 -2.5977586,-0.0893 -2.9819336,-3.59554 -2.9819336,-4.17619 0.8781149,-0.8263 1.8111125,-1.58561 2.6160516,-2.47891 3.841755,-4.24318 6.73222,-9.335 8.817742,-15.09679 0.695177,-1.89827 1.554996,-3.52854 3.091699,-4.53351 0.512236,-0.26799 0.969587,-0.29032 1.664761,0 z"
       class="st0"
       inkscape:connector-curvature="0"
       style="fill:#eb524f;stroke-width:0.20212694" />
  </g>
  <style
     id="style10">.st0{fill:#eb524f}</style>
</svg>
