<svg xmlns="http://www.w3.org/2000/svg" width="47.625mm" height="47.625mm" viewBox="0 0 47.625 47.624996"><path id="path14" d="M17.22 2.992c1.854.711 2.43 2.549 2.43 4.644-.016 1.66-.176 3.32-.496 4.941-.687 3.696-1.534 7.352-2.238 11.028-.575 3.024-1.103 6.087-1.119 9.21.016.85.128 1.7.32 2.51.368 1.621 1.471 1.739 2.302.751.527-.632 1.007-1.304 1.439-2.036 2.078-3.419 3.916-7.056 5.483-10.87 1.518-3.656 4.987-11.917 5.195-12.411 1.087-2.47 4.092-2.055 5.003.356.511 1.304.799 2.747.847 4.19.08 3.123.32 11.838.432 13.083.208 2.411 1.455 3.182 3.117 1.838 1.007-.81 1.918-1.838 2.829-2.806.847-.929 1.295-.83 1.71.474.368 1.146.208 2.293-.096 3.38-1.023 3.676-3.245 5.633-6.202 6.423-.943.257-1.918.277-2.877.079-2.126-.435-3.485-1.957-4.3-4.308-.783-2.273-1.023-8.735-1.199-9.565-.288.751-3.692 9.427-5.483 12.728-1.119 2.115-2.478 4.032-4.044 5.672-1.55 1.601-3.309 2.589-5.371 2.648-2.494.079-4.3-1.324-5.546-3.933-.799-1.68-1.135-3.557-1.247-5.494-.16-2.708.192-5.356.671-8.004.16-.85.272-1.719.448-2.806-.687.435-1.135.83-1.646 1.047-.607.257-1.263.514-1.902.494-2.27-.079-2.605-3.182-2.605-3.696.767-.731 1.582-1.403 2.286-2.194 3.357-3.755 5.882-8.261 7.704-13.36.607-1.68 1.359-3.123 2.701-4.012.448-.237.847-.257 1.455 0z" class="st0" fill="#eb524f"/><style id="style10">.st0{fill:#eb524f}</style></svg>