<?xml version="1.0" encoding="UTF-8" standalone="no"?>
<svg
   xmlns:dc="http://purl.org/dc/elements/1.1/"
   xmlns:cc="http://creativecommons.org/ns#"
   xmlns:rdf="http://www.w3.org/1999/02/22-rdf-syntax-ns#"
   xmlns:svg="http://www.w3.org/2000/svg"
   xmlns="http://www.w3.org/2000/svg"
   xmlns:sodipodi="http://sodipodi.sourceforge.net/DTD/sodipodi-0.dtd"
   xmlns:inkscape="http://www.inkscape.org/namespaces/inkscape"
   viewBox="0 0 400 300"
   width="400"
   height="300"
   version="1.1"
   id="svg9"
   sodipodi:docname="02-thumbnail.svg"
   inkscape:version="0.92.3 (2405546, 2018-03-11)">
  <metadata
     id="metadata15">
    <rdf:RDF>
      <cc:Work
         rdf:about="">
        <dc:format>image/svg+xml</dc:format>
        <dc:type
           rdf:resource="http://purl.org/dc/dcmitype/StillImage" />
      </cc:Work>
    </rdf:RDF>
  </metadata>
  <defs
     id="defs13" />
  <sodipodi:namedview
     pagecolor="#ffffff"
     bordercolor="#666666"
     borderopacity="1"
     objecttolerance="10"
     gridtolerance="10"
     guidetolerance="10"
     inkscape:pageopacity="0"
     inkscape:pageshadow="2"
     inkscape:window-width="1920"
     inkscape:window-height="1018"
     id="namedview11"
     showgrid="false"
     inkscape:zoom="1.42"
     inkscape:cx="200"
     inkscape:cy="150"
     inkscape:window-x="-8"
     inkscape:window-y="-8"
     inkscape:window-maximized="1"
     inkscape:current-layer="svg9" />
  <clipPath
     id="b">
    <path
       inkscape:connector-curvature="0"
       d="M 44.5,20 H 24 v 8.5 H 35.8 C 34.7,33.9 30.1,37 24,37 16.8,37 11,31.2 11,24 c 0,-7.2 5.8,-13 13,-13 3.1,0 5.9,1.1 8.1,2.9 L 38.5,7.5 C 34.6,4.1 29.6,2 24,2 11.8,2 2,11.8 2,24 c 0,12.2 9.8,22 22,22 11,0 21,-8 21,-22 0,-1.3 -0.2,-2.7 -0.5,-4 z"
       id="use5" />
  </clipPath>
  <path
     clip-path="url(#b)"
     d="M 0,37 V 11 l 17,13 z"
     id="path8"
     inkscape:connector-curvature="0"
     transform="matrix(6.917,0,0,6.7636161,41.598657,-12.326788)"
     style="fill:#fbbc05" />
  <path
     clip-path="url(#b)"
     d="M 0,11 17,24 24,17.9 48,14 V 0 H 0 Z"
     id="path10"
     inkscape:connector-curvature="0"
     transform="matrix(6.917,0,0,6.7636161,41.598657,-12.326788)"
     style="fill:#ea4335" />
  <path
     clip-path="url(#b)"
     d="M 0,37 30,14 37.9,15 48,0 V 48 H 0 Z"
     id="path12"
     inkscape:connector-curvature="0"
     transform="matrix(6.917,0,0,6.7636161,41.598657,-12.326788)"
     style="fill:#34a853" />
  <path
     clip-path="url(#b)"
     d="M 48,48 17,24 13,21 48,11 Z"
     id="path14"
     inkscape:connector-curvature="0"
     transform="matrix(6.917,0,0,6.7636161,41.598657,-12.326788)"
     style="fill:#4285f4" />
</svg>
