<?xml version="1.0" encoding="UTF-8" standalone="no"?>
<svg
   xmlns:dc="http://purl.org/dc/elements/1.1/"
   xmlns:cc="http://creativecommons.org/ns#"
   xmlns:rdf="http://www.w3.org/1999/02/22-rdf-syntax-ns#"
   xmlns:svg="http://www.w3.org/2000/svg"
   xmlns="http://www.w3.org/2000/svg"
   xmlns:sodipodi="http://sodipodi.sourceforge.net/DTD/sodipodi-0.dtd"
   xmlns:inkscape="http://www.inkscape.org/namespaces/inkscape"
   id="Layer_1"
   version="1.1"
   viewBox="0 0 400 300"
   xml:space="preserve"
   sodipodi:docname="pencil.svg"
   width="400"
   height="300"
   inkscape:version="0.92.3 (2405546, 2018-03-11)"><metadata
     id="metadata87"><rdf:RDF><cc:Work
         rdf:about=""><dc:format>image/svg+xml</dc:format><dc:type
           rdf:resource="http://purl.org/dc/dcmitype/StillImage" /><dc:title></dc:title></cc:Work></rdf:RDF></metadata><defs
     id="defs85" /><sodipodi:namedview
     pagecolor="#ffffff"
     bordercolor="#666666"
     borderopacity="1"
     objecttolerance="10"
     gridtolerance="10"
     guidetolerance="10"
     inkscape:pageopacity="0"
     inkscape:pageshadow="2"
     inkscape:window-width="1920"
     inkscape:window-height="1018"
     id="namedview83"
     showgrid="false"
     inkscape:zoom="1.84375"
     inkscape:cx="210.33591"
     inkscape:cy="107.38983"
     inkscape:window-x="-8"
     inkscape:window-y="-8"
     inkscape:window-maximized="1"
     inkscape:current-layer="Layer_1" /><style
     type="text/css"
     id="style2">
	.st0{opacity:0.2;fill:#FFFFFF;}
	.st1{fill:#FFFFFF;}
	.st2{fill:none;stroke:#242C88;stroke-width:2;stroke-linecap:round;stroke-linejoin:round;stroke-miterlimit:10;}
	.st3{fill:#5E61A3;}
	.st4{opacity:0.5;fill:#242C88;}
	.st5{fill:#39C89A;}
	.st6{fill:#CAEAFB;}
	.st7{fill:#589FFF;}
	.st8{fill:#FF5751;}
	.st9{fill:#BC8D66;}
	.st10{opacity:0.7;fill:#FFFFFF;}
	.st11{fill:#F1C92A;}
	.st12{opacity:0.4;fill:none;stroke:#FFFFFF;stroke-width:2;stroke-linecap:round;stroke-linejoin:round;stroke-miterlimit:10;}
	.st13{fill:#F3877E;}
	.st14{fill:#83D689;}
	.st15{opacity:0.4;fill:#242C88;}
	.st16{opacity:0.2;fill:#242C88;}
	
		.st17{fill:none;stroke:#FFFFFF;stroke-width:3;stroke-linecap:round;stroke-linejoin:round;stroke-miterlimit:10;stroke-dasharray:0.1,6;}
	.st18{fill:#FFC408;}
	
		.st19{opacity:0.4;fill:none;stroke:#FFFFFF;stroke-width:3;stroke-linecap:round;stroke-linejoin:round;stroke-miterlimit:10;stroke-dasharray:0.1,6;}
	.st20{fill:none;stroke:#CAEAFB;stroke-width:12;stroke-linecap:round;stroke-miterlimit:10;}
	.st21{fill:none;stroke:#CAEAFB;stroke-width:7;stroke-linecap:round;stroke-miterlimit:10;}
	.st22{opacity:0.4;fill:none;stroke:#242C88;stroke-width:2;stroke-linecap:round;stroke-linejoin:round;stroke-miterlimit:10;}
	.st23{opacity:0.5;}
	.st24{fill:#242C88;}
	
		.st25{fill:none;stroke:#242C88;stroke-width:3;stroke-linecap:round;stroke-linejoin:round;stroke-miterlimit:10;stroke-dasharray:0.1,6;}
	.st26{opacity:0.5;fill:#FFFFFF;}
	.st27{fill:none;stroke:#FFFFFF;stroke-width:3;stroke-linecap:round;stroke-linejoin:round;stroke-miterlimit:10;}
	.st28{fill:none;stroke:#FFFFFF;stroke-width:2;stroke-linecap:round;stroke-linejoin:round;stroke-miterlimit:10;}
	.st29{fill:#E5BD9E;}
	.st30{fill:#A06D47;}
	
		.st31{opacity:0.3;fill:none;stroke:#FFFFFF;stroke-width:3;stroke-linecap:round;stroke-linejoin:round;stroke-miterlimit:10;stroke-dasharray:0.1,6;}
	.st32{opacity:0.1;fill:#242C88;}
	.st33{opacity:0.5;fill:#FF5751;}
	.st34{opacity:0.2;fill:none;stroke:#242C88;stroke-width:2;stroke-linecap:round;stroke-linejoin:round;stroke-miterlimit:10;}
	.st35{opacity:0.3;clip-path:url(#SVGID_2_);}
	
		.st36{fill:none;stroke:#FFFFFF;stroke-width:3;stroke-linecap:round;stroke-linejoin:round;stroke-miterlimit:10;stroke-dasharray:0,6;}
	
		.st37{opacity:0.3;fill:none;stroke:#FFFFFF;stroke-width:3;stroke-linecap:round;stroke-linejoin:round;stroke-miterlimit:10;stroke-dasharray:0,6;}
	.st38{clip-path:url(#SVGID_4_);}
	.st39{opacity:0.2;fill:none;stroke:#242C88;stroke-width:9;stroke-linecap:round;stroke-linejoin:round;stroke-miterlimit:10;}
	.st40{opacity:0.3;}
	.st41{opacity:0.4;fill:#FFFFFF;}
	.st42{opacity:0.5;fill:#CAEAFB;}
	.st43{opacity:0.6;fill:#242C88;}
	.st44{opacity:0.5;fill:none;stroke:#242C88;stroke-width:2;stroke-linecap:round;stroke-linejoin:round;stroke-miterlimit:10;}
	.st45{opacity:0.3;fill:#242C88;}
	.st46{opacity:0.2;}
	
		.st47{clip-path:url(#SVGID_6_);fill:none;stroke:#242C88;stroke-width:2;stroke-linecap:round;stroke-linejoin:round;stroke-miterlimit:10;}
	.st48{opacity:0.2;fill:none;stroke:#FFFFFF;stroke-width:8;stroke-linecap:round;stroke-linejoin:round;stroke-miterlimit:10;}
	.st49{clip-path:url(#SVGID_8_);fill:#FFFFFF;}
	
		.st50{clip-path:url(#SVGID_8_);fill:none;stroke:#242C88;stroke-width:2;stroke-linecap:round;stroke-linejoin:round;stroke-miterlimit:10;}
	.st51{opacity:0.2;clip-path:url(#SVGID_8_);fill:#242C88;}
	
		.st52{opacity:0.2;clip-path:url(#SVGID_8_);fill:none;stroke:#242C88;stroke-width:2;stroke-linecap:round;stroke-linejoin:round;stroke-miterlimit:10;}
	.st53{fill:none;stroke:#242C88;stroke-width:1.848;stroke-linecap:round;stroke-linejoin:round;stroke-miterlimit:10;}
	.st54{opacity:0.4;fill:none;stroke:#FFFFFF;stroke-width:7;stroke-linecap:round;stroke-linejoin:round;stroke-miterlimit:10;}
	.st55{opacity:0.2;fill:none;stroke:#242C88;stroke-width:7;stroke-linecap:round;stroke-linejoin:round;stroke-miterlimit:10;}
	.st56{opacity:7.000000e-02;fill:#242C88;}
	.st57{fill:none;stroke:#FFFFFF;stroke-width:4;stroke-linecap:round;stroke-linejoin:round;stroke-miterlimit:10;}
	.st58{opacity:0.4;fill:none;stroke:#FFFFFF;stroke-width:8;stroke-linecap:round;stroke-linejoin:round;stroke-miterlimit:10;}
	.st59{opacity:0.2;fill:none;stroke:#242C88;stroke-width:8;stroke-linecap:round;stroke-linejoin:round;stroke-miterlimit:10;}
	.st60{fill:none;stroke:#FF5751;stroke-width:4;stroke-linecap:round;stroke-linejoin:round;stroke-miterlimit:10;}
	.st61{fill:none;stroke:#242C88;stroke-width:4;stroke-linecap:round;stroke-linejoin:round;stroke-miterlimit:10;}
</style><rect
     class="st1"
     height="249"
     width="204"
     x="43.809635"
     y="7.762711"
     id="rect4"
     style="fill:#ffffff;stroke-width:3" /><rect
     class="st2"
     height="249"
     width="204"
     x="43.809635"
     y="7.762711"
     id="rect6"
     style="fill:none;stroke:#242c88;stroke-width:6;stroke-linecap:round;stroke-linejoin:round;stroke-miterlimit:10" /><path
     class="st14"
     d="M 109.80964,94.762712 H 79.809636 c -3.3,0 -6,-2.7 -6,-6 v -30 c 0,-3.3 2.7,-6 6,-6 h 30.000004 c 3.3,0 6,2.7 6,6 v 30 c 0,3.3 -2.7,6 -6,6 z"
     id="path8"
     inkscape:connector-curvature="0"
     style="fill:#83d689;stroke-width:3" /><path
     class="st14"
     d="M 109.20964,154.76271 H 79.809636 c -3.3,0 -6,-2.7 -6,-6 v -30 c 0,-3.3 2.7,-6 6,-6 h 30.000004 c 3.3,0 6,2.7 6,6 v 29.4 c 0,3.6 -3,6.6 -6.6,6.6 z"
     id="path10"
     inkscape:connector-curvature="0"
     style="fill:#83d689;stroke-width:3" /><path
     class="st14"
     d="M 109.80964,217.76271 H 79.809636 c -3.3,0 -6,-2.7 -6,-6 v -30 c 0,-3.3 2.7,-6 6,-6 h 30.000004 c 3.3,0 6,2.7 6,6 v 30 c 0,3.3 -2.7,6 -6,6 z"
     id="path12"
     inkscape:connector-curvature="0"
     style="fill:#83d689;stroke-width:3" /><path
     class="st2"
     d="M 109.80964,94.762712 H 79.809636 c -3.3,0 -6,-2.7 -6,-6 v -30 c 0,-3.3 2.7,-6 6,-6 h 30.000004 c 3.3,0 6,2.7 6,6 v 30 c 0,3.3 -2.7,6 -6,6 z"
     id="path14"
     inkscape:connector-curvature="0"
     style="fill:none;stroke:#242c88;stroke-width:6;stroke-linecap:round;stroke-linejoin:round;stroke-miterlimit:10" /><path
     class="st2"
     d="M 109.20964,154.76271 H 79.809636 c -3.3,0 -6,-2.7 -6,-6 v -30 c 0,-3.3 2.7,-6 6,-6 h 30.000004 c 3.3,0 6,2.7 6,6 v 29.4 c 0,3.6 -3,6.6 -6.6,6.6 z"
     id="path16"
     inkscape:connector-curvature="0"
     style="fill:none;stroke:#242c88;stroke-width:6;stroke-linecap:round;stroke-linejoin:round;stroke-miterlimit:10" /><path
     class="st2"
     d="M 109.80964,217.76271 H 79.809636 c -3.3,0 -6,-2.7 -6,-6 v -30 c 0,-3.3 2.7,-6 6,-6 h 30.000004 c 3.3,0 6,2.7 6,6 v 30 c 0,3.3 -2.7,6 -6,6 z"
     id="path18"
     inkscape:connector-curvature="0"
     style="fill:none;stroke:#242c88;stroke-width:6;stroke-linecap:round;stroke-linejoin:round;stroke-miterlimit:10" /><path
     class="st16"
     d="M 247.80964,259.76271 V 28.762712 H 94.809641 c -3.3,0 -6,2.7 -6,6 V 259.76271 Z"
     id="path20"
     inkscape:connector-curvature="0"
     style="opacity:0.2;fill:#242c88;stroke-width:3" /><rect
     class="st1"
     height="249"
     width="204"
     x="103.80962"
     y="43.762714"
     id="rect22"
     style="fill:#ffffff;stroke-width:3" /><rect
     class="st2"
     height="249"
     width="204"
     x="103.80962"
     y="43.762714"
     id="rect24"
     style="fill:none;stroke:#242c88;stroke-width:6;stroke-linecap:round;stroke-linejoin:round;stroke-miterlimit:10" /><line
     class="st34"
     x1="199.80963"
     x2="235.80963"
     y1="115.76271"
     y2="115.76271"
     id="line26"
     style="opacity:0.2;fill:none;stroke:#242c88;stroke-width:6;stroke-linecap:round;stroke-linejoin:round;stroke-miterlimit:10" /><line
     class="st34"
     x1="199.80963"
     x2="271.80966"
     y1="100.76271"
     y2="100.76271"
     id="line28"
     style="opacity:0.2;fill:none;stroke:#242c88;stroke-width:6;stroke-linecap:round;stroke-linejoin:round;stroke-miterlimit:10" /><path
     class="st14"
     d="m 172.80964,130.76271 h -30 c -3.3,0 -6,-2.7 -6,-6 V 94.762712 c 0,-3.3 2.7,-6 6,-6 h 30 c 3.3,0 6,2.7 6,6 v 29.999998 c 0,3.3 -2.7,6 -6,6 z"
     id="path30"
     inkscape:connector-curvature="0"
     style="fill:#83d689;stroke-width:3" /><polyline
     class="st2"
     points="45.3,51.7 48.2,54.4 53.9,48.6 "
     id="polyline32"
     transform="matrix(3,0,0,3,10.809636,-43.237288)"
     style="fill:none;stroke:#242c88;stroke-width:2;stroke-linecap:round;stroke-linejoin:round;stroke-miterlimit:10" /><line
     class="st34"
     x1="199.80963"
     x2="235.80963"
     y1="178.76271"
     y2="178.76271"
     id="line34"
     style="opacity:0.2;fill:none;stroke:#242c88;stroke-width:6;stroke-linecap:round;stroke-linejoin:round;stroke-miterlimit:10" /><line
     class="st34"
     x1="199.80963"
     x2="271.80966"
     y1="160.76271"
     y2="160.76271"
     id="line36"
     style="opacity:0.2;fill:none;stroke:#242c88;stroke-width:6;stroke-linecap:round;stroke-linejoin:round;stroke-miterlimit:10" /><path
     class="st14"
     d="m 172.80964,190.76271 h -30 c -3.3,0 -6,-2.7 -6,-6 v -30 c 0,-3.3 2.7,-6 6,-6 h 29.4 c 3.6,0 6.6,3 6.6,6.6 v 29.4 c 0,3.3 -2.7,6 -6,6 z"
     id="path38"
     inkscape:connector-curvature="0"
     style="fill:#83d689;stroke-width:3" /><polyline
     class="st2"
     points="45.3,71.9 48.2,74.6 53.9,68.9 "
     id="polyline40"
     transform="matrix(3,0,0,3,10.809636,-43.237288)"
     style="fill:none;stroke:#242c88;stroke-width:2;stroke-linecap:round;stroke-linejoin:round;stroke-miterlimit:10" /><line
     class="st34"
     x1="199.80963"
     x2="235.80963"
     y1="238.76271"
     y2="238.76271"
     id="line42"
     style="opacity:0.2;fill:none;stroke:#242c88;stroke-width:6;stroke-linecap:round;stroke-linejoin:round;stroke-miterlimit:10" /><line
     class="st34"
     x1="199.80963"
     x2="271.80966"
     y1="223.76271"
     y2="223.76271"
     id="line44"
     style="opacity:0.2;fill:none;stroke:#242c88;stroke-width:6;stroke-linecap:round;stroke-linejoin:round;stroke-miterlimit:10" /><path
     class="st14"
     d="m 172.80964,250.76271 h -30 c -3.3,0 -6,-2.7 -6,-6 v -30 c 0,-3.3 2.7,-6 6,-6 h 30 c 3.3,0 6,2.7 6,6 v 30 c 0,3.3 -2.7,6 -6,6 z"
     id="path46"
     inkscape:connector-curvature="0"
     style="fill:#83d689;stroke-width:3" /><path
     class="st2"
     d="m 172.80964,130.76271 h -30 c -3.3,0 -6,-2.7 -6,-6 V 94.762712 c 0,-3.3 2.7,-6 6,-6 h 30 c 3.3,0 6,2.7 6,6 v 29.999998 c 0,3.3 -2.7,6 -6,6 z"
     id="path48"
     inkscape:connector-curvature="0"
     style="fill:none;stroke:#242c88;stroke-width:6;stroke-linecap:round;stroke-linejoin:round;stroke-miterlimit:10" /><path
     class="st2"
     d="m 172.80964,190.76271 h -30 c -3.3,0 -6,-2.7 -6,-6 v -30 c 0,-3.3 2.7,-6 6,-6 h 29.4 c 3.6,0 6.6,3 6.6,6.6 v 29.4 c 0,3.3 -2.7,6 -6,6 z"
     id="path50"
     inkscape:connector-curvature="0"
     style="fill:none;stroke:#242c88;stroke-width:6;stroke-linecap:round;stroke-linejoin:round;stroke-miterlimit:10" /><path
     class="st2"
     d="m 172.80964,250.76271 h -30 c -3.3,0 -6,-2.7 -6,-6 v -30 c 0,-3.3 2.7,-6 6,-6 h 30 c 3.3,0 6,2.7 6,6 v 30 c 0,3.3 -2.7,6 -6,6 z"
     id="path52"
     inkscape:connector-curvature="0"
     style="fill:none;stroke:#242c88;stroke-width:6;stroke-linecap:round;stroke-linejoin:round;stroke-miterlimit:10" /><polygon
     class="st16"
     points="74.4,93.1 99,78.6 99,57.6 65.2,77.5 53.6,94.9 "
     id="polygon54"
     transform="matrix(3,0,0,3,10.809636,-43.237288)"
     style="opacity:0.2;fill:#242c88" /><g
     id="g80"
     transform="matrix(3,0,0,3,10.809636,-43.237288)"><polygon
       class="st1"
       points="61,74.9 98.6,37.3 111.4,50.1 73.8,87.7 54.1,94.6 "
       id="polygon56"
       style="fill:#ffffff" /><rect
       class="st18"
       height="18.1"
       transform="matrix(0.7071,-0.7071,0.7071,0.7071,-18.9596,79.2808)"
       width="53.200001"
       x="59.599998"
       y="53.5"
       id="rect58"
       style="fill:#ffc408" /><rect
       class="st16"
       height="5.3000002"
       transform="matrix(0.7071,-0.7071,0.7071,0.7071,-20.8293,83.7946)"
       width="53.200001"
       x="64.099998"
       y="64.400002"
       id="rect60"
       style="opacity:0.2;fill:#242c88" /><polygon
       class="st3"
       points="62.5,91.4 57.1,86 54.1,94.4 "
       id="polygon62"
       style="fill:#5e61a3" /><polygon
       class="st2"
       points="61,74.9 98.6,37.3 111.4,50.1 73.8,87.7 54.1,94.6 "
       id="polygon64"
       style="fill:none;stroke:#242c88;stroke-width:2;stroke-linecap:round;stroke-linejoin:round;stroke-miterlimit:10" /><path
       class="st13"
       d="m 111.4,50.1 6,-6 c 1.7,-1.7 1.7,-4.4 0,-6 l -6.8,-6.8 c -1.7,-1.7 -4.4,-1.7 -6,0 l -6,6 z"
       id="path66"
       inkscape:connector-curvature="0"
       style="fill:#f3877e" /><path
       class="st2"
       d="m 111.4,50.1 6,-6 c 1.7,-1.7 1.7,-4.4 0,-6 l -6.8,-6.8 c -1.7,-1.7 -4.4,-1.7 -6,0 l -6,6 z"
       id="path68"
       inkscape:connector-curvature="0"
       style="fill:none;stroke:#242c88;stroke-width:2;stroke-linecap:round;stroke-linejoin:round;stroke-miterlimit:10" /><line
       class="st2"
       x1="80.599998"
       x2="106.9"
       y1="73.400002"
       y2="47.099998"
       id="line70"
       style="fill:none;stroke:#242c88;stroke-width:2;stroke-linecap:round;stroke-linejoin:round;stroke-miterlimit:10" /><line
       class="st2"
       x1="70"
       x2="76.099998"
       y1="84"
       y2="77.900002"
       id="line72"
       style="fill:none;stroke:#242c88;stroke-width:2;stroke-linecap:round;stroke-linejoin:round;stroke-miterlimit:10" /><rect
       class="st1"
       height="18.1"
       transform="matrix(0.7071,-0.7071,0.7071,0.7071,-0.5282,86.9153)"
       width="7.4000001"
       x="100.9"
       y="35.099998"
       id="rect74"
       style="fill:#ffffff" /><rect
       class="st16"
       height="18.1"
       transform="matrix(0.7071,-0.7071,0.7071,0.7071,-0.5282,86.9153)"
       width="7.4000001"
       x="100.9"
       y="35.099998"
       id="rect76"
       style="opacity:0.2;fill:#242c88" /><rect
       class="st2"
       height="18.1"
       transform="matrix(0.7071,-0.7071,0.7071,0.7071,-0.5282,86.9153)"
       width="7.4000001"
       x="100.9"
       y="35.099998"
       id="rect78"
       style="fill:none;stroke:#242c88;stroke-width:2;stroke-linecap:round;stroke-linejoin:round;stroke-miterlimit:10" /></g></svg>